<svg width="1233" height="150" viewBox="0 0 1233 150" fill="none" xmlns="http://www.w3.org/2000/svg">
<g clip-path="url(#clip0_167_2)">
<mask id="mask0_167_2" style="mask-type:luminance" maskUnits="userSpaceOnUse" x="0" y="0" width="1233" height="150">
<path d="M1233 0H0V150H1233V0Z" fill="white"/>
</mask>
<g mask="url(#mask0_167_2)">
<path d="M75.0118 46.875H75.0116C61.2024 46.875 50.0078 58.0679 50.0078 71.875V71.8752C50.0078 85.6823 61.2024 96.8752 75.0116 96.8752H75.0118C88.821 96.8752 100.016 85.6823 100.016 71.8752V71.875C100.016 58.0679 88.821 46.875 75.0118 46.875Z" fill="#059669" fill-opacity="0.5"/>
<path d="M37.5059 123.751C37.5059 109.083 50.9887 98.1211 65.3506 101.113L69.7528 102.03C73.2211 102.752 76.8015 102.752 80.2703 102.03L84.6726 101.113C99.0344 98.1211 112.517 109.083 112.517 123.751C112.517 136.522 102.162 146.875 89.3894 146.875H60.6338C47.8607 146.875 37.5059 136.522 37.5059 123.751Z" fill="#059669" fill-opacity="0.5"/>
<path d="M0 33.3333V125C0 138.807 11.1946 150 25.0038 150C38.813 150 50.0078 138.807 50.0078 125V75C50.0078 61.193 61.2023 50.0002 75.0114 50.0002C88.8205 50.0002 100.015 61.193 100.015 75V125C100.015 138.807 111.21 150 125.019 150C138.828 150 150.023 138.807 150.023 125V33.3333C148.044 13.3238 138.768 4.15152 120.095 0.576375C117.836 0.143946 115.53 0 113.23 0H33.3384C12.0852 2.08333 2.08365 12.9167 0 33.3333Z" fill="#059669"/>
<path d="M239.138 35.3695V117.188H221.838V51.7889H221.358L202.619 63.5344V48.1936L222.876 35.3695H239.138ZM282.633 117.188V35.3695H299.934V69.1275H335.056V35.3695H352.317V117.188H335.056V83.3902H299.934V117.188H282.633ZM392.754 118.386C386.548 118.386 381.18 117.067 376.652 114.431C372.15 111.768 368.674 108.066 366.223 103.325C363.772 98.558 362.547 93.0309 362.547 86.7455C362.547 80.4066 363.772 74.8673 366.223 70.1264C368.674 65.3592 372.15 61.657 376.652 59.0203C381.18 56.3569 386.548 55.0247 392.754 55.0247C398.961 55.0247 404.314 56.3569 408.816 59.0203C413.344 61.657 416.834 65.3592 419.285 70.1264C421.736 74.8673 422.961 80.4066 422.961 86.7455C422.961 93.0309 421.736 98.558 419.285 103.325C416.834 108.066 413.344 111.768 408.816 114.431C404.314 117.067 398.961 118.386 392.754 118.386ZM392.834 105.202C395.658 105.202 398.015 104.404 399.906 102.806C401.797 101.181 403.223 98.97 404.182 96.1734C405.167 93.3773 405.66 90.195 405.66 86.6259C405.66 83.0573 405.167 79.8741 404.182 77.0775C403.223 74.2809 401.797 72.0703 399.906 70.4461C398.015 68.8214 395.658 68.0091 392.834 68.0091C389.984 68.0091 387.586 68.8214 385.641 70.4461C383.723 72.0703 382.272 74.2809 381.286 77.0775C380.327 79.8741 379.848 83.0573 379.848 86.6259C379.848 90.195 380.327 93.3773 381.286 96.1734C382.272 98.97 383.723 101.181 385.641 102.806C387.586 104.404 389.984 105.202 392.834 105.202ZM472.15 91.0598V55.8239H489.168V117.188H472.83V106.042H472.188C470.805 109.637 468.498 112.527 465.275 114.711C462.079 116.895 458.176 117.987 453.568 117.987C449.466 117.987 445.857 117.054 442.74 115.19C439.623 113.325 437.186 110.676 435.428 107.24C433.696 103.804 432.817 99.6895 432.791 94.8956V55.8239H449.812V91.8591C449.839 95.4811 450.811 98.3447 452.729 100.449C454.647 102.553 457.218 103.605 460.441 103.605C462.492 103.605 464.41 103.139 466.194 102.207C467.979 101.248 469.417 99.8362 470.509 97.972C471.63 96.1069 472.174 93.8034 472.15 91.0598ZM501.545 117.188V55.8239H518.048V66.5311H518.69C519.806 62.7225 521.686 59.8453 524.321 57.9014C526.96 55.9303 529.998 54.945 533.434 54.945C534.283 54.945 535.202 54.9989 536.191 55.1053C537.176 55.2117 538.043 55.358 538.788 55.5441V70.6458C537.987 70.4063 536.88 70.1925 535.469 70.0064C534.058 69.8198 532.769 69.7266 531.597 69.7266C529.088 69.7266 526.852 70.2727 524.883 71.3644C522.938 72.4298 521.39 73.9219 520.246 75.8395C519.126 77.7572 518.568 79.9673 518.568 82.4709V117.188H501.545ZM571.475 117.188V35.3695H603.758C609.937 35.3695 615.211 36.4748 619.58 38.6854C623.973 40.8694 627.321 43.9722 629.608 47.9934C631.924 51.9891 633.087 56.6897 633.087 62.0967C633.087 67.5291 631.915 72.2034 629.571 76.1184C627.227 80.0072 623.828 82.9898 619.379 85.0673C614.958 87.1448 609.604 88.1836 603.317 88.1836H581.7V74.2809H600.523C603.823 74.2809 606.566 73.8286 608.751 72.923C610.935 72.0173 612.562 70.6589 613.626 68.8477C614.719 67.0364 615.267 64.7864 615.267 62.0967C615.267 59.3798 614.719 57.0895 613.626 55.2248C612.562 53.3606 610.921 51.9488 608.713 50.9902C606.528 50.0048 603.772 49.5122 600.443 49.5122H588.774V117.188H571.475ZM615.666 79.9542L636.003 117.188H616.903L597.007 79.9542H615.666ZM670.733 118.386C664.423 118.386 658.99 117.108 654.433 114.551C649.904 111.967 646.416 108.319 643.964 103.605C641.512 98.8641 640.288 93.2573 640.288 86.7853C640.288 80.4736 641.512 74.9334 643.964 70.1662C646.416 65.3986 649.866 61.6837 654.315 59.0203C658.788 56.3569 664.034 55.0247 670.058 55.0247C674.104 55.0247 677.874 55.6777 681.362 56.9827C684.878 58.2614 687.944 60.1922 690.555 62.7755C693.19 65.3592 695.243 68.6081 696.706 72.5231C698.174 76.4114 698.905 80.9658 698.905 86.1863V90.8602H647.081V80.3133H682.881C682.881 77.8631 682.351 75.6928 681.282 73.8019C680.218 71.9109 678.741 70.4325 676.847 69.367C674.986 68.2748 672.815 67.7297 670.335 67.7297C667.752 67.7297 665.459 68.3288 663.462 69.5273C661.493 70.6992 659.946 72.2836 658.83 74.2809C657.71 76.2516 657.138 78.4491 657.11 80.8725V90.9C657.11 93.937 657.667 96.5597 658.788 98.7703C659.932 100.981 661.545 102.685 663.621 103.884C665.703 105.082 668.164 105.682 671.015 105.682C672.904 105.682 674.639 105.415 676.209 104.883C677.78 104.35 679.125 103.551 680.246 102.486C681.362 101.421 682.215 100.116 682.801 98.5711L698.544 99.6094C697.747 103.391 696.106 106.694 693.631 109.517C691.179 112.313 688.01 114.497 684.123 116.069C680.26 117.614 675.797 118.386 670.733 118.386ZM736.504 118.386C730.218 118.386 724.812 117.054 720.283 114.391C715.782 111.701 712.318 107.972 709.894 103.205C707.498 98.4375 706.298 92.9508 706.298 86.7455C706.298 80.46 707.508 74.947 709.932 70.2066C712.384 65.4389 715.862 61.7231 720.363 59.0597C724.864 56.37 730.218 55.0247 736.425 55.0247C741.779 55.0247 746.467 55.9969 750.489 57.9412C754.512 59.8861 757.695 62.6156 760.039 66.1312C762.383 69.6469 763.673 73.7747 763.916 78.5156H747.85C747.4 75.4528 746.2 72.9891 744.254 71.1248C742.337 69.2339 739.819 68.2889 736.706 68.2889C734.067 68.2889 731.765 69.008 729.791 70.4461C727.845 71.857 726.331 73.9214 725.239 76.6378C724.146 79.3547 723.598 82.6439 723.598 86.5055C723.598 90.4214 724.132 93.75 725.196 96.4931C726.289 99.2367 727.822 101.327 729.791 102.765C731.765 104.204 734.067 104.923 736.706 104.923C738.647 104.923 740.396 104.523 741.938 103.724C743.509 102.925 744.803 101.767 745.815 100.249C746.851 98.7038 747.531 96.8531 747.85 94.6955H763.916C763.649 99.383 762.369 103.511 760.077 107.08C757.812 110.622 754.685 113.392 750.691 115.39C746.692 117.388 741.966 118.386 736.504 118.386ZM773.574 117.188V55.8239H790.077V66.5311H790.714C791.835 62.7225 793.715 59.8453 796.349 57.9014C798.989 55.9303 802.022 54.945 805.459 54.945C806.312 54.945 807.231 54.9989 808.215 55.1053C809.205 55.2117 810.067 55.358 810.813 55.5441V70.6458C810.016 70.4063 808.909 70.1925 807.498 70.0064C806.087 69.8198 804.793 69.7266 803.621 69.7266C801.117 69.7266 798.881 70.2727 796.907 71.3644C794.966 72.4298 793.419 73.9219 792.275 75.8395C791.155 77.7572 790.597 79.9673 790.597 82.4709V117.188H773.574ZM857.732 91.0598V55.8239H874.755V117.188H858.412V106.042H857.774C856.387 109.637 854.085 112.527 850.859 114.711C847.667 116.895 843.761 117.987 839.153 117.987C835.051 117.987 831.441 117.054 828.328 115.19C825.21 113.325 822.772 110.676 821.014 107.24C819.284 103.804 818.403 99.6895 818.375 94.8956V55.8239H835.398V91.8591C835.426 95.4811 836.396 98.3447 838.314 100.449C840.231 102.553 842.805 103.605 846.026 103.605C848.079 103.605 849.997 103.139 851.778 102.207C853.564 101.248 855.004 99.8362 856.096 97.972C857.217 96.1069 857.76 93.8034 857.732 91.0598ZM887.132 117.188V55.8239H904.155V117.188H887.132ZM895.683 47.9137C893.152 47.9137 890.981 47.0747 889.171 45.3971C887.385 43.6925 886.494 41.655 886.494 39.2847C886.494 36.9409 887.385 34.9301 889.171 33.2522C890.981 31.5476 893.152 30.6953 895.683 30.6953C898.215 30.6953 900.372 31.5476 902.158 33.2522C903.967 34.9301 904.872 36.9409 904.872 39.2847C904.872 41.655 903.967 43.6925 902.158 45.3971C900.372 47.0747 898.215 47.9137 895.683 47.9137ZM949.195 55.8239V68.6081H912.237V55.8239H949.195ZM920.629 41.1224H937.648V98.3316C937.648 99.9028 937.887 101.128 938.369 102.007C938.848 102.859 939.513 103.458 940.367 103.804C941.243 104.15 942.256 104.324 943.405 104.324C944.202 104.324 944.999 104.257 945.8 104.124C946.597 103.965 947.211 103.845 947.638 103.764L950.315 116.429C949.462 116.695 948.262 117.001 946.719 117.347C945.172 117.72 943.297 117.947 941.084 118.027C936.982 118.187 933.386 117.64 930.296 116.388C927.235 115.137 924.849 113.192 923.142 110.556C921.44 107.919 920.601 104.59 920.629 100.568V41.1224ZM959.045 117.188V55.8239H975.27V66.6506H975.988C977.268 63.0548 979.396 60.2189 982.382 58.1414C985.364 56.0639 988.932 55.0247 993.09 55.0247C997.296 55.0247 1000.88 56.077 1003.84 58.1808C1006.79 60.2583 1008.76 63.0816 1009.75 66.6506H1010.39C1011.64 63.135 1013.91 60.3248 1017.18 58.2211C1020.48 56.0906 1024.39 55.0247 1028.89 55.0247C1034.62 55.0247 1039.26 56.8495 1042.84 60.4983C1046.43 64.1208 1048.23 69.2606 1048.23 75.9187V117.188H1031.25V79.2745C1031.25 75.8658 1030.34 73.3087 1028.53 71.6048C1026.72 69.9 1024.45 69.0478 1021.74 69.0478C1018.65 69.0478 1016.24 70.0327 1014.51 72.0037C1012.78 73.9481 1011.91 76.5183 1011.91 79.7142V117.188H995.406V78.915C995.406 75.9056 994.539 73.5084 992.809 71.7239C991.102 69.9398 988.852 69.0478 986.058 69.0478C984.164 69.0478 982.462 69.5269 980.943 70.4855C979.452 71.4178 978.266 72.7364 977.385 74.4413C976.508 76.1189 976.067 78.09 976.067 80.3531V117.188H959.045ZM1088.41 118.386C1082.09 118.386 1076.66 117.108 1072.11 114.551C1067.58 111.967 1064.08 108.319 1061.64 103.605C1059.18 98.8641 1057.96 93.2573 1057.96 86.7853C1057.96 80.4736 1059.18 74.9334 1061.64 70.1662C1064.08 65.3986 1067.53 61.6837 1071.98 59.0203C1076.46 56.3569 1081.71 55.0247 1087.73 55.0247C1091.78 55.0247 1095.55 55.6777 1099.03 56.9827C1102.55 58.2614 1105.61 60.1922 1108.22 62.7755C1110.86 65.3592 1112.91 68.6081 1114.38 72.5231C1115.84 76.4114 1116.57 80.9658 1116.57 86.1863V90.8602H1064.75V80.3133H1100.55C1100.55 77.8631 1100.02 75.6928 1098.95 73.8019C1097.89 71.9109 1096.41 70.4325 1094.52 69.367C1092.65 68.2748 1090.48 67.7297 1088.01 67.7297C1085.42 67.7297 1083.13 68.3288 1081.13 69.5273C1079.16 70.6992 1077.62 72.2836 1076.5 74.2809C1075.38 76.2516 1074.81 78.4491 1074.78 80.8725V90.9C1074.78 93.937 1075.34 96.5597 1076.46 98.7703C1077.6 100.981 1079.22 102.685 1081.29 103.884C1083.37 105.082 1085.84 105.682 1088.69 105.682C1090.58 105.682 1092.31 105.415 1093.88 104.883C1095.45 104.35 1096.8 103.551 1097.91 102.486C1099.03 101.421 1099.89 100.116 1100.47 98.5711L1116.22 99.6094C1115.42 103.391 1113.78 106.694 1111.3 109.517C1108.85 112.313 1105.68 114.497 1101.79 116.069C1097.93 117.614 1093.46 118.386 1088.41 118.386ZM1143.46 81.712V117.188H1126.45V55.8239H1142.67V66.6506H1143.38C1144.74 63.0816 1147.02 60.2583 1150.22 58.1808C1153.42 56.077 1157.29 55.0247 1161.85 55.0247C1166.11 55.0247 1169.83 55.9575 1173 57.8217C1176.17 59.6864 1178.63 62.3489 1180.38 65.8116C1182.14 69.247 1183.02 73.3486 1183.02 78.1167V117.188H1166V81.1523C1166.03 77.3972 1165.07 74.4675 1163.13 72.3633C1161.18 70.2328 1158.5 69.1678 1155.1 69.1678C1152.8 69.1678 1150.78 69.6605 1149.02 70.6458C1147.29 71.6311 1145.93 73.0697 1144.95 74.9606C1143.99 76.8248 1143.49 79.0753 1143.46 81.712ZM1227.84 55.8239V68.6081H1190.89V55.8239H1227.84ZM1199.28 41.1224H1216.3V98.3316C1216.3 99.9028 1216.54 101.128 1217.02 102.007C1217.5 102.859 1218.16 103.458 1219.02 103.804C1219.89 104.15 1220.9 104.324 1222.05 104.324C1222.85 104.324 1223.65 104.257 1224.45 104.124C1225.25 103.965 1225.86 103.845 1226.29 103.764L1228.96 116.429C1228.11 116.695 1226.91 117.001 1225.37 117.347C1223.83 117.72 1221.95 117.947 1219.73 118.027C1215.63 118.187 1212.03 117.64 1208.94 116.388C1205.88 115.137 1203.5 113.192 1201.8 110.556C1200.09 107.919 1199.25 104.59 1199.28 100.568V41.1224Z" fill="black"/>
</g>
</g>
<defs>
<clipPath id="clip0_167_2">
<rect width="1233" height="150" fill="white"/>
</clipPath>
</defs>
</svg>
